<mxfile host="app.diagrams.net" modified="2023-06-13T02:51:06.306Z" agent="Mozilla/5.0 (Windows NT 10.0; Win64; x64) AppleWebKit/537.36 (KHTML, like Gecko) Chrome/114.0.0.0 Safari/537.36" etag="S6dqnezNcmEP81Y_El-W" version="21.2.1" type="github">
  <diagram name="第 1 页" id="_fb_59e73cKpCFfRBRVF">
    <mxGraphModel dx="1434" dy="764" grid="1" gridSize="10" guides="1" tooltips="1" connect="1" arrows="1" fold="1" page="1" pageScale="1" pageWidth="827" pageHeight="1169" math="0" shadow="0">
      <root>
        <mxCell id="0" />
        <mxCell id="1" parent="0" />
        <mxCell id="wY5xuENfSCJPbYg1gd0B-4" style="edgeStyle=orthogonalEdgeStyle;rounded=0;orthogonalLoop=1;jettySize=auto;html=1;exitX=0.25;exitY=1;exitDx=0;exitDy=0;entryX=0.25;entryY=0;entryDx=0;entryDy=0;" edge="1" parent="1" source="wY5xuENfSCJPbYg1gd0B-1" target="wY5xuENfSCJPbYg1gd0B-2">
          <mxGeometry relative="1" as="geometry" />
        </mxCell>
        <mxCell id="wY5xuENfSCJPbYg1gd0B-1" value="tester" style="rounded=0;whiteSpace=wrap;html=1;" vertex="1" parent="1">
          <mxGeometry x="240" y="80" width="240" height="40" as="geometry" />
        </mxCell>
        <mxCell id="wY5xuENfSCJPbYg1gd0B-5" style="edgeStyle=orthogonalEdgeStyle;rounded=0;orthogonalLoop=1;jettySize=auto;html=1;exitX=0.25;exitY=1;exitDx=0;exitDy=0;entryX=0.25;entryY=0;entryDx=0;entryDy=0;" edge="1" parent="1" source="wY5xuENfSCJPbYg1gd0B-2" target="wY5xuENfSCJPbYg1gd0B-3">
          <mxGeometry relative="1" as="geometry" />
        </mxCell>
        <mxCell id="wY5xuENfSCJPbYg1gd0B-7" style="edgeStyle=orthogonalEdgeStyle;rounded=0;orthogonalLoop=1;jettySize=auto;html=1;exitX=0.75;exitY=0;exitDx=0;exitDy=0;entryX=0.75;entryY=1;entryDx=0;entryDy=0;" edge="1" parent="1" source="wY5xuENfSCJPbYg1gd0B-2" target="wY5xuENfSCJPbYg1gd0B-1">
          <mxGeometry relative="1" as="geometry" />
        </mxCell>
        <mxCell id="wY5xuENfSCJPbYg1gd0B-2" value="swu" style="rounded=0;whiteSpace=wrap;html=1;" vertex="1" parent="1">
          <mxGeometry x="240" y="240" width="240" height="40" as="geometry" />
        </mxCell>
        <mxCell id="wY5xuENfSCJPbYg1gd0B-6" style="edgeStyle=orthogonalEdgeStyle;rounded=0;orthogonalLoop=1;jettySize=auto;html=1;exitX=0.75;exitY=0;exitDx=0;exitDy=0;entryX=0.75;entryY=1;entryDx=0;entryDy=0;" edge="1" parent="1" source="wY5xuENfSCJPbYg1gd0B-3" target="wY5xuENfSCJPbYg1gd0B-2">
          <mxGeometry relative="1" as="geometry" />
        </mxCell>
        <mxCell id="wY5xuENfSCJPbYg1gd0B-3" value="spu" style="rounded=0;whiteSpace=wrap;html=1;" vertex="1" parent="1">
          <mxGeometry x="240" y="360" width="240" height="40" as="geometry" />
        </mxCell>
        <mxCell id="wY5xuENfSCJPbYg1gd0B-8" value="s1xg1" style="text;html=1;align=center;verticalAlign=middle;resizable=0;points=[];autosize=1;strokeColor=none;fillColor=none;" vertex="1" parent="1">
          <mxGeometry x="290" y="210" width="60" height="30" as="geometry" />
        </mxCell>
        <mxCell id="wY5xuENfSCJPbYg1gd0B-9" value="s1xg2" style="text;html=1;align=center;verticalAlign=middle;resizable=0;points=[];autosize=1;strokeColor=none;fillColor=none;" vertex="1" parent="1">
          <mxGeometry x="414" y="210" width="60" height="30" as="geometry" />
        </mxCell>
        <mxCell id="wY5xuENfSCJPbYg1gd0B-10" value="mport1" style="text;html=1;align=center;verticalAlign=middle;resizable=0;points=[];autosize=1;strokeColor=none;fillColor=none;" vertex="1" parent="1">
          <mxGeometry x="290" y="330" width="60" height="30" as="geometry" />
        </mxCell>
        <mxCell id="wY5xuENfSCJPbYg1gd0B-11" value="mport2" style="text;html=1;align=center;verticalAlign=middle;resizable=0;points=[];autosize=1;strokeColor=none;fillColor=none;" vertex="1" parent="1">
          <mxGeometry x="414" y="330" width="60" height="30" as="geometry" />
        </mxCell>
        <mxCell id="wY5xuENfSCJPbYg1gd0B-12" value="vlan:401" style="text;html=1;align=center;verticalAlign=middle;resizable=0;points=[];autosize=1;strokeColor=none;fillColor=none;" vertex="1" parent="1">
          <mxGeometry x="240" y="210" width="70" height="30" as="geometry" />
        </mxCell>
        <mxCell id="wY5xuENfSCJPbYg1gd0B-13" value="vlan:402" style="text;html=1;align=center;verticalAlign=middle;resizable=0;points=[];autosize=1;strokeColor=none;fillColor=none;" vertex="1" parent="1">
          <mxGeometry x="460" y="210" width="70" height="30" as="geometry" />
        </mxCell>
        <mxCell id="wY5xuENfSCJPbYg1gd0B-16" style="edgeStyle=orthogonalEdgeStyle;curved=1;rounded=0;orthogonalLoop=1;jettySize=auto;html=1;exitX=0.25;exitY=1;exitDx=0;exitDy=0;entryX=0.75;entryY=1;entryDx=0;entryDy=0;" edge="1" parent="1" source="wY5xuENfSCJPbYg1gd0B-3" target="wY5xuENfSCJPbYg1gd0B-3">
          <mxGeometry relative="1" as="geometry">
            <Array as="points">
              <mxPoint x="300" y="460" />
              <mxPoint x="420" y="460" />
            </Array>
          </mxGeometry>
        </mxCell>
        <mxCell id="wY5xuENfSCJPbYg1gd0B-17" value="vlan 401 改成 402" style="text;html=1;align=center;verticalAlign=middle;resizable=0;points=[];autosize=1;strokeColor=none;fillColor=none;" vertex="1" parent="1">
          <mxGeometry x="300" y="460" width="120" height="30" as="geometry" />
        </mxCell>
        <mxCell id="wY5xuENfSCJPbYg1gd0B-18" value="&lt;b&gt;dpdk&lt;/b&gt;" style="text;html=1;align=center;verticalAlign=middle;resizable=0;points=[];autosize=1;strokeColor=none;fillColor=none;" vertex="1" parent="1">
          <mxGeometry x="335" y="430" width="50" height="30" as="geometry" />
        </mxCell>
      </root>
    </mxGraphModel>
  </diagram>
</mxfile>
